<?xml version="1.0" encoding="UTF-8" standalone="no"?>
<svg
   xmlns:dc="http://purl.org/dc/elements/1.1/"
   xmlns:cc="http://creativecommons.org/ns#"
   xmlns:rdf="http://www.w3.org/1999/02/22-rdf-syntax-ns#"
   xmlns:svg="http://www.w3.org/2000/svg"
   xmlns="http://www.w3.org/2000/svg"
   xmlns:sodipodi="http://sodipodi.sourceforge.net/DTD/sodipodi-0.dtd"
   xmlns:inkscape="http://www.inkscape.org/namespaces/inkscape"
   width="210mm"
   height="297mm"
   viewBox="0 0 210 297"
   version="1.1"
   id="svg457"
   inkscape:version="1.0 (4035a4f, 2020-05-01)"
   sodipodi:docname="eisbaer2.svg">
  <defs
     id="defs451">
    <clipPath
       clipPathUnits="userSpaceOnUse"
       id="clipPath3348">
      <path
         id="path3350"
         style="fill:#ff0000;fill-opacity:1;fill-rule:nonzero;stroke:none;stroke-width:0.264583"
         d="m 119.00772,142.75459 v 13.46998 h 29.21372 v -1.90944 c -0.004,0.002 -0.006,0.004 -0.01,0.006 -0.0279,0.0121 -0.0627,0.0418 -0.0878,0.0248 -0.0722,-0.0486 -0.13353,-0.11113 -0.19379,-0.17467 -0.008,0.005 -0.0142,-10e-4 -0.017,-0.0176 0.006,0.006 0.0115,0.0111 0.017,0.017 0.004,-0.002 0.007,-0.003 0.0119,-0.0103 0.0122,-0.0195 0.0202,-0.0406 0.0274,-0.062 -0.0186,-0.0169 -0.0356,-0.0384 -0.0512,-0.0625 -0.007,0.047 -0.01,0.0923 -0.005,0.11731 -0.0313,-0.0331 -0.0627,-0.0665 -0.0956,-0.0977 0.0185,-0.18171 0.0101,-0.10768 0.0243,-0.15244 -0.0528,0.0227 -0.0902,-0.004 -0.0935,-0.13643 -2.6e-4,-0.0125 -7.9e-4,-0.0246 -0.001,-0.0372 0.003,-0.0613 0.001,-0.0536 0.0129,-0.12867 0.001,-0.0104 -0.007,0.025 0.002,0.031 0.0332,0.0236 0.0433,0.0322 0.0698,0.0517 -1.2e-4,-0.005 0.001,-0.007 0.001,-0.0124 -0.0168,-0.15661 -0.0368,-0.30909 0.0708,-0.45113 0.007,-0.007 0.0115,-0.008 0.0165,-0.0108 -1e-4,-0.0127 -2.6e-4,-0.0255 -5.3e-4,-0.0382 5.3e-4,-0.0157 0.002,-0.019 0.002,-0.032 -0.006,-0.0235 -0.0116,-0.0462 0.003,-0.0475 0.006,-0.0955 0.0339,-0.0928 0.22273,-0.0682 0.0208,-0.0466 0.0468,-0.0822 0.0744,-0.11266 v -10.15545 z" />
    </clipPath>
    <clipPath
       clipPathUnits="userSpaceOnUse"
       id="clipPath3396">
      <path
         id="path3398"
         style="fill:#ff0000;fill-opacity:1;fill-rule:nonzero;stroke:none;stroke-width:0.264583"
         d="m 121.44375,154.66756 v 15.58509 c 0.10381,0.02 0.2089,0.1173 0.25735,0.3111 0.0144,0.0578 0.0309,0.11543 0.0434,0.17363 0.01,0.0448 0.0173,0.09 0.0233,0.13539 0.0295,0.011 0.059,0.0215 0.0873,0.0357 0.006,0.003 -0.008,0.0602 -0.0171,0.10284 0.0844,0.10811 0.11278,0.18154 0.0822,0.28267 2e-5,0.001 -2e-5,0.002 0,0.003 1.3e-4,0.0112 -0.01,0.0298 -0.0165,0.047 0.008,-0.0184 0.0115,-0.0336 0.0165,-0.0501 -0.007,-0.44045 -0.35398,0.3356 -0.47646,0.20516 v 25.71729 h 26.79114 v -41.86721 c -0.005,0.002 -0.0131,0.004 -0.0165,0.006 -5.3e-4,0.001 -0.001,0.003 -0.002,0.004 5.3e-4,0.0112 -2.4e-4,0.0123 5.3e-4,0.0243 -0.031,0.0333 -0.0555,0.12556 -0.093,0.0997 -0.001,-7.9e-4 -8e-4,-0.002 -0.002,-0.004 -0.006,0.0215 -0.0165,0.0464 -0.0382,0.0806 -0.10082,0.15862 -0.12152,0.25936 -0.43047,0.12868 -0.0504,-0.0214 -0.0781,-0.0557 -0.093,-0.0956 -0.0423,1.8e-4 -0.0621,-0.0104 -0.0667,-0.0439 -0.002,-7e-5 -0.002,-5.3e-4 -0.004,-5.3e-4 -0.0144,-5.3e-4 0,-0.029 0,-0.0434 v -0.0403 c -0.0182,-0.001 -0.0159,-0.003 0,-0.006 v -0.008 c 0,-0.004 -0.004,-0.0114 0,-0.0114 v -0.0202 c -0.0155,-0.003 0,-0.0317 0,-0.0475 v -0.0987 -0.0718 c 0,-0.0134 0.004,-0.022 0.005,-0.0346 -0.0728,-0.0983 -0.25529,-0.4533 -0.0946,-0.37 0.0189,-0.045 0.0438,-0.0867 0.0677,-0.12867 z m 26.04285,0.40049 c 0.005,0.0142 0.01,0.0336 0.0145,0.046 0.002,-0.0132 0.003,-0.0275 0.005,-0.0398 -0.006,-0.002 -0.0139,-0.004 -0.0196,-0.006 z m 0.72967,0.24288 c 5.3e-4,0.0174 -5.3e-4,0.0239 5.3e-4,0.0439 h 5.3e-4 c 2.2e-4,-8e-5 8e-4,-5.3e-4 0.001,-5.3e-4 0.004,-0.0109 0.0107,-0.0234 0.0155,-0.0357 v -5.3e-4 c -0.006,-0.002 -0.0113,-0.004 -0.0176,-0.007 z m 0.0176,0.007 c 2.6e-4,1.4e-4 5.3e-4,2.3e-4 0.001,5.3e-4 v -0.003 c -1.5e-4,7.9e-4 -7.9e-4,0.002 -0.001,0.003 z M 121.44375,170.741 v 0.0398 c 0.041,0.0105 0.0819,0.0215 0.12299,0.0315 -0.0406,-0.036 -0.0827,-0.0635 -0.12299,-0.0713 z m 0.32711,0.18242 c 2e-5,7.9e-4 -1e-5,0.002 0,0.003 0.012,0.0148 0.0197,0.0248 0.0305,0.0382 -0.008,-0.0174 -0.0183,-0.0314 -0.0305,-0.0408 z m -0.32195,0.18861 c -5.2e-4,3e-5 -0.004,0.009 -0.005,0.0119 v 0.0109 c 0.002,-0.008 0.004,-0.0133 0.007,-0.0222 -5.3e-4,-1.3e-4 -10e-4,-2.7e-4 -0.002,-5.3e-4 z" />
    </clipPath>
    <clipPath
       clipPathUnits="userSpaceOnUse"
       id="clipPath3430">
      <path
         id="path3432"
         style="fill:#ff0000;fill-opacity:1;fill-rule:nonzero;stroke:none;stroke-width:0.264583"
         d="m 23.587191,103.08156 v 54.96822 c 0.03419,-0.0184 0.06754,-0.0384 0.103352,-0.0532 0.02193,-0.009 0.0247,-0.007 0.03514,-0.009 0.02553,-0.0672 0.05161,-0.12077 0.07338,-0.13023 1.6e-5,-0.0192 2.3e-5,-0.0382 0,-0.0574 0.01191,-1.8e-4 0.01553,-8e-4 0.02687,-0.001 0.01054,-0.007 0.0358,-0.009 0.05633,-0.0103 0.007,-0.0463 0.01948,-0.0818 0.04548,-0.0806 0.04534,0.002 0.08931,0.0124 0.132292,0.0264 0.03828,-0.14114 0.13039,-0.21342 0.223242,-0.21342 0.121012,0 0.241846,0.12007 0.241846,0.35966 v 0.16123 0.0703 0.0507 c 0,0.0134 0.01343,0.0397 0,0.0403 -0.0016,7e-5 -0.002,5.3e-4 -0.0036,5.3e-4 -0.0034,0.0247 -0.01281,0.0407 -0.03462,0.0429 -0.0081,0.0142 -0.0208,0.034 -0.03152,0.0512 0.02163,0.13743 -0.02334,0.23732 -0.09147,0.29611 1.38e-4,0.009 0.001,0.0182 0.001,0.0274 -0.0083,0.12797 -0.0055,0.0939 -0.07545,0.2129 -3.44e-4,0.003 -0.0016,0.007 -0.0016,0.009 -0.0105,0.0693 -0.0057,0.096 -0.0036,0.15813 6.61e-4,0.007 -0.0042,0.0209 -0.0062,0.0315 0.0081,0.0105 0.0033,0.007 -0.001,0.005 -0.01193,0.055 -0.05009,0.14094 -0.09818,0.19844 0.03583,0.17089 0.06885,0.0817 -0.22686,0.3452 -0.0042,-10e-4 -0.01718,-8e-4 -0.03152,-5.3e-4 0.02225,0.12231 0.01305,0.19531 -0.116789,0.0796 -0.04775,-0.0426 -0.100844,-0.0796 -0.143144,-0.12764 -0.01345,-0.0153 -0.03465,-0.0951 -0.03876,-0.13281 0,0 0,-5.3e-4 0,-5.3e-4 -0.0089,-0.006 -0.01239,-0.01 -0.01395,-0.0134 -0.0033,0.002 -0.01266,0.004 -0.02067,0.006 v 7.42797 h 37.478342 v -63.73765 z m 0.03462,56.31801 c 0.02382,0.0149 0.07166,0.0384 0.150378,0.0811 -0.04254,-0.0395 -0.08801,-0.0764 -0.131775,-0.11472 -0.0087,0.002 -0.01712,0.006 -0.02222,0.008 -0.0012,0.002 0.0028,0.0181 0.0036,0.0258 z m -0.0036,-0.0259 v -0.002 c 0,0 -5.29e-4,0 -5.29e-4,0 1.49e-4,8e-4 5.82e-4,0.001 5.29e-4,0.002 z m -5.29e-4,-0.002 c 0,0 0,-5.3e-4 0,-5.3e-4 0.0044,-0.005 0.0099,-0.009 0.01447,-0.0145 -0.0042,0.003 -0.0087,0.005 -0.01292,0.008 1.31e-4,0.004 -0.0023,0.006 -0.0036,0.009 8.21e-4,-5.3e-4 0.0012,-0.001 0.0021,-0.002 z m 0.490409,-0.076 c -6.35e-4,7.9e-4 -0.0015,0.002 -0.0021,0.003 -0.0032,0.0122 -0.0072,0.0231 -0.01085,0.0341 -0.0021,-0.003 -0.006,-0.008 -0.0088,-0.0114 -0.02583,0.0291 -0.05071,0.0589 -0.07596,0.0884 0.03207,-0.0111 0.0528,-0.0248 0.06925,-0.0388 0.0053,-0.0121 0.01095,-0.0239 0.0155,-0.0377 0.0027,0.004 0.0032,0.006 0.0047,0.009 0.0075,-0.0149 0.01123,-0.0303 0.0083,-0.0465 z m -0.02842,0.0749 c -0.002,0.005 -0.0036,0.0101 -0.0057,0.0145 0.02296,-0.0115 0.03348,-0.0251 0.02584,-0.0424 -0.0049,0.01 -0.0098,0.0191 -0.02015,0.0279 z" />
    </clipPath>
  </defs>
  <sodipodi:namedview
     id="base"
     pagecolor="#ffffff"
     bordercolor="#666666"
     borderopacity="1.0"
     inkscape:pageopacity="0.0"
     inkscape:pageshadow="2"
     inkscape:zoom="0.81454783"
     inkscape:cx="591.88229"
     inkscape:cy="526.33361"
     inkscape:document-units="mm"
     inkscape:current-layer="layer1"
     inkscape:document-rotation="0"
     showgrid="true"
     inkscape:window-width="1248"
     inkscape:window-height="655"
     inkscape:window-x="0"
     inkscape:window-y="23"
     inkscape:window-maximized="0">
    <inkscape:grid
       type="xygrid"
       id="grid459" />
  </sodipodi:namedview>
  <metadata
     id="metadata454">
    <rdf:RDF>
      <cc:Work
         rdf:about="">
        <dc:format>image/svg+xml</dc:format>
        <dc:type
           rdf:resource="http://purl.org/dc/dcmitype/StillImage" />
        <dc:title></dc:title>
      </cc:Work>
    </rdf:RDF>
  </metadata>
  <g
     inkscape:label="Ebene 1"
     inkscape:groupmode="layer"
     id="layer1">
    <path
       style="fill:#005252;stroke:#000000;stroke-width:0.26458300000000001px;stroke-linecap:butt;stroke-linejoin:miter;stroke-opacity:1;opacity:1;fill-opacity:0.18431373"
       d="m 74.083332,161.39583 h -7.9375 l -10.583333,5.29167 -5.291666,7.9375 2.645833,15.875 -5.291667,2.64583 L 18.520833,190.5 10.583333,174.625 23.8125,161.39583 26.458333,150.8125 v -7.9375 -18.52083 l 2.645833,-21.16667 13.229167,-15.875001 26.458333,-5.291667 15.875,2.645834 18.520834,5.291666 13.22917,2.645834 7.9375,2.645833 h 13.22916 l 15.875,2.645833 h 15.875 5.29167 l 10.58333,2.645838 2.64583,10.58333 10.58334,7.9375 V 127 l -10.58334,2.64583 -18.52083,2.64583 H 158.75 l -10.58334,10.58334 -2.64583,39.6875 10.58333,10.58333 -26.45833,2.64583 -5.29166,-10.58333 -2.64584,-15.875 -2.64583,-13.22917 -21.166668,5.29167 -7.9375,21.16667 2.645834,10.58333 h -15.875 l -10.583334,-7.9375 7.9375,-7.9375 z"
       id="path475" />
    <path
       style="fill:#005252;stroke:#000000;stroke-width:0.26458300000000001px;stroke-linecap:butt;stroke-linejoin:miter;stroke-opacity:1;opacity:1;fill-opacity:0.18431373"
       d="M 103.1875,89.958332 105.83333,158.75"
       id="path481" />
    <path
       style="fill:#005252;stroke:#000000;stroke-width:0.26458300000000001px;stroke-linecap:butt;stroke-linejoin:miter;stroke-opacity:1;opacity:1;fill-opacity:0.18431373"
       d="M 60.854166,127 103.1875,89.958332"
       id="path483" />
    <path
       style="fill:#005252;stroke:#000000;stroke-width:0.26458300000000001px;stroke-linecap:butt;stroke-linejoin:miter;stroke-opacity:1;opacity:1;fill-opacity:0.18431373"
       d="M 29.104166,103.1875 60.854166,127 23.8125,158.75 37.041667,166.6875 H 55.5625"
       id="path485"
       clip-path="url(#clipPath3430)" />
    <path
       style="fill:#005252;stroke:#000000;stroke-width:0.26458300000000001px;stroke-linecap:butt;stroke-linejoin:miter;stroke-opacity:1;opacity:1;fill-opacity:0.18431373"
       d="M 10.583333,174.625 37.041666,166.6875 18.520833,190.5"
       id="path487" />
    <path
       style="fill:#005252;stroke:#000000;stroke-width:0.26458300000000001px;stroke-linecap:butt;stroke-linejoin:miter;stroke-opacity:1;opacity:1;fill-opacity:0.18431373"
       d="m 37.041666,166.6875 10.583333,26.45833"
       id="path489" />
    <path
       style="fill:#005252;stroke:#000000;stroke-width:0.26458300000000001px;stroke-linecap:butt;stroke-linejoin:miter;stroke-opacity:1;opacity:1;fill-opacity:0.18431373"
       d="M 50.270833,174.625 37.041666,166.6875"
       id="path491" />
    <path
       style="fill:#005252;stroke:#000000;stroke-width:0.26458300000000001px;stroke-linecap:butt;stroke-linejoin:miter;stroke-opacity:1;opacity:1;fill-opacity:0.18431373"
       d="M 55.562499,166.6875 60.854166,127"
       id="path493" />
    <path
       style="fill:#005252;stroke:#000000;stroke-width:0.26458300000000001px;stroke-linecap:butt;stroke-linejoin:miter;stroke-opacity:1;opacity:1;fill-opacity:0.18431373"
       d="M 74.083332,161.39583 60.854166,127"
       id="path495" />
    <path
       style="fill:#005252;stroke:#000000;stroke-width:0.26458300000000001px;stroke-linecap:butt;stroke-linejoin:miter;stroke-opacity:1;opacity:1;fill-opacity:0.18431373"
       d="M 105.83333,158.75 60.854166,127"
       id="path497" />
    <path
       style="fill:#005252;stroke:#000000;stroke-width:0.26458300000000001px;stroke-linecap:butt;stroke-linejoin:miter;stroke-opacity:1;opacity:1;fill-opacity:0.18431373"
       d="m 74.083332,161.39583 15.875,21.16667"
       id="path499" />
    <path
       style="fill:#005252;stroke:#000000;stroke-width:0.26458300000000001px;stroke-linecap:butt;stroke-linejoin:miter;stroke-opacity:1;opacity:1;fill-opacity:0.18431373"
       d="m 76.729166,193.14583 13.229166,-10.58333 -15.875,-5.29167"
       id="path501" />
    <path
       style="fill:#005252;stroke:#000000;stroke-width:0.26458300000000001px;stroke-linecap:butt;stroke-linejoin:miter;stroke-opacity:1;opacity:1;fill-opacity:0.18431373"
       d="M 124.35417,95.249999 142.875,116.41667 105.83333,158.75"
       id="path505" />
    <path
       style="fill:#005252;stroke:#000000;stroke-width:0.26458300000000001px;stroke-linecap:butt;stroke-linejoin:miter;stroke-opacity:1;opacity:1;fill-opacity:0.18431373"
       d="M 148.16666,142.875 142.875,116.41667 158.75,132.29166"
       id="path507" />
    <path
       style="fill:#005252;stroke:#000000;stroke-width:0.26458300000000001px;stroke-linecap:butt;stroke-linejoin:miter;stroke-opacity:1;opacity:1;fill-opacity:0.18431373"
       d="m 148.16667,154.78125 -26.45833,15.875 23.8125,13.22917 -15.875,13.22917"
       id="path509"
       clip-path="url(#clipPath3396)"
       transform="matrix(0.99742849,0,0,0.96642723,0.31297454,5.1964359)" />
    <path
       style="fill:#005252;stroke:#000000;stroke-width:0.26458300000000001px;stroke-linecap:butt;stroke-linejoin:miter;stroke-opacity:1;opacity:1;fill-opacity:0.18431373"
       d="m 124.35417,185.20833 21.16666,-2.64583"
       id="path511" />
    <path
       style="fill:#005252;stroke:#000000;stroke-width:0.26458300000000001px;stroke-linecap:butt;stroke-linejoin:miter;stroke-opacity:1;opacity:1;fill-opacity:0.18431373"
       d="M 185.20833,100.54167 171.97916,113.77083 174.625,97.895833"
       id="path513" />
    <path
       style="fill:#005252;stroke:#000000;stroke-width:0.26458300000000001px;stroke-linecap:butt;stroke-linejoin:miter;stroke-opacity:1;opacity:1;fill-opacity:0.18431373"
       d="m 158.75,132.29166 13.22916,-18.52083 7.93751,15.875"
       id="path515" />
    <path
       style="fill:#005252;stroke:#000000;stroke-width:0.26458300000000001px;stroke-linecap:butt;stroke-linejoin:miter;stroke-opacity:1;opacity:1;fill-opacity:0.18431373"
       d="m 171.97916,113.77083 13.22917,10.58334"
       id="path517" />
    <path
       style="fill:#005252;stroke:#000000;stroke-width:0.26458300000000001px;stroke-linecap:butt;stroke-linejoin:miter;stroke-opacity:1;opacity:1;fill-opacity:0.18431373"
       d="m 187.85416,111.125 -2.64583,13.22917 v 5.29166"
       id="path519" />
    <path
       style="fill:#005252;stroke:#000000;stroke-width:0.26458300000000001px;stroke-linecap:butt;stroke-linejoin:miter;stroke-opacity:1;opacity:1;fill-opacity:0.18431373"
       d="m 169.33333,132.29166 10.58333,-2.64583 5.29167,0"
       id="path521" />
    <path
       style="fill:#005252;stroke:#000000;stroke-width:0.26458300000000001px;stroke-linecap:butt;stroke-linejoin:miter;stroke-opacity:1;opacity:1;fill-opacity:0.18431373"
       d="M 185.20833,124.35417 190.5,119.0625 h 7.9375"
       id="path523" />
    <path
       sodipodi:type="star"
       style="fill:#005252;fill-rule:evenodd;stroke:#000000;stroke-width:0.265;stroke-miterlimit:4;stroke-dasharray:none;stroke-opacity:1;opacity:1;fill-opacity:0.18431373"
       id="path525"
       sodipodi:sides="3"
       sodipodi:cx="161.39583"
       sodipodi:cy="105.83333"
       sodipodi:r1="5.9162631"
       sodipodi:r2="2.9581316"
       sodipodi:arg1="1.1071487"
       sodipodi:arg2="2.1543463"
       inkscape:flatsided="false"
       inkscape:rounded="0"
       inkscape:randomized="0"
       d="m 164.04166,111.12499 -4.27573,-2.82307 -4.27574,-2.82307 4.58272,-2.29136 4.58272,-2.29135 -0.30698,5.11443 z"
       inkscape:transform-center-x="1.5059253"
       inkscape:transform-center-y="3.6669702"
       transform="matrix(0.99903394,0.24515481,-0.32262912,0.87477391,33.629389,-28.945681)" />
    <path
       style="fill:#005252;stroke:#000000;stroke-width:0.26458300000000001px;stroke-linecap:butt;stroke-linejoin:miter;stroke-opacity:1;opacity:1;fill-opacity:0.18431373"
       d="m 142.875,116.41667 7.9375,-18.520838"
       id="path3302" />
    <path
       style="fill:#005252;stroke:#000000;stroke-width:0.26458300000000001px;stroke-linecap:butt;stroke-linejoin:miter;stroke-opacity:1;opacity:1;fill-opacity:0.18431373"
       d="m 97.895832,161.39583 h -23.8125"
       id="path3304" />
    <path
       style="fill:#005252;stroke:#000000;stroke-width:0.26458300000000001px;stroke-linecap:butt;stroke-linejoin:miter;stroke-opacity:1;opacity:1;fill-opacity:0.18431373"
       d="m 198.4375,127 -13.22917,-2.64583"
       id="path3306" />
    <path
       style="fill:#005252;stroke:#000000;stroke-width:0.26458300000000001px;stroke-linecap:butt;stroke-linejoin:miter;stroke-opacity:1;opacity:1;fill-opacity:0.18431373"
       d="m 42.333333,87.312499 18.520833,15.875001 7.9375,-21.166668"
       id="path3310" />
    <path
       style="fill:#005252;stroke:#000000;stroke-width:0.26458300000000001px;stroke-linecap:butt;stroke-linejoin:miter;stroke-opacity:1;opacity:1;fill-opacity:0.18431373"
       d="M 60.854166,103.1875 V 127"
       id="path3312" />
    <path
       style="fill:#005252;stroke:#000000;stroke-width:0.26458300000000001px;stroke-linecap:butt;stroke-linejoin:miter;stroke-opacity:1;opacity:1;fill-opacity:0.18431373"
       d="M 142.875,116.41667 103.1875,89.958332"
       id="path3320" />
    <path
       style="fill:#005252;stroke:#000000;stroke-width:0.26458300000000001px;stroke-linecap:butt;stroke-linejoin:miter;stroke-opacity:1;opacity:1;fill-opacity:0.18431373"
       d="M 60.854166,127 142.875,116.41667"
       id="path3324" />
    <path
       style="fill:#005252;stroke:#000000;stroke-width:0.26458300000000001px;stroke-linecap:butt;stroke-linejoin:miter;stroke-opacity:1;opacity:1;fill-opacity:0.18431373"
       d="M 148.16666,142.875 119.0625,156.10416"
       id="path3326"
       clip-path="url(#clipPath3348)" />
  </g>
</svg>
