<?xml version="1.0" encoding="UTF-8" standalone="no"?>
<!DOCTYPE svg PUBLIC "-//W3C//DTD SVG 1.1//EN" "http://www.w3.org/Graphics/SVG/1.1/DTD/svg11.dtd">
<svg version="1.1" xmlns="http://www.w3.org/2000/svg" xmlns:xlink="http://www.w3.org/1999/xlink" preserveAspectRatio="xMidYMid meet" viewBox="0 0 800 800" width="800" height="800"><defs><path d="M228.46 204.03L365.46 297.55L397.46 277.03L424.46 297.55L560.46 203.03L670.46 185.05L693.2 252.03L651.46 294.03L668.2 342.03L625.46 378.03L543.2 372.55L595.3 404.03L578.3 420.03L600.3 452.03L555.7 538.03L528.3 576.03L459.3 558.03L403.3 468.03L393.2 519.03L380.7 466.03L325.3 560.05L263.3 585.05L230.7 539.03L185.3 444.03L210.3 410.05L195.3 397.55L245.3 372.55L159.3 378.03L124.3 347.55L137.3 294.03L96.3 251.03L115.3 185.05L228.46 204.03Z" id="aDrkqfFoP"></path><path d="M379.65 466.15L364.65 296.65L379.65 466.15Z" id="lest2iVb6"></path><path d="M380.15 466.15L402.65 466.15L425 296.15" id="g1dgvu0yHP"></path><path d="M423.65 296.65L364.65 296.65L423.65 296.65Z" id="b3qQjVnqQK"></path><path d="M407.75 284.39L410.68 275L420.52 275.17L423.67 284.68L415.78 290.37L407.75 284.39Z" id="m2eJSc6IFF"></path><path d="M368.75 282.96L371.68 273.56L381.52 273.74L384.67 283.24L376.78 288.94L368.75 282.96Z" id="e6QNnBdFIM"></path><path d="M393.75 278.56L384.95 251.61L368.75 202L356.25 203.56L390.15 280.65L393.75 278.56Z" id="b1pCcRLExH"></path><path d="M402.65 281.01L416.64 257.46L442.4 214.09L432.02 201.75L398.41 278.33L402.65 281.01Z" id="c6OoGLamGn"></path><path d="M423.73 297.07L391.73 383.07L364.23 296.57" id="c1nI1tTfkV"></path><path d="" id="b17UmqY9ZJ"></path><path d="M381.25 466.07L391.23 383.07L381.25 466.07Z" id="b2on0cT4y"></path><path d="M381.25 466.07L402.73 465.57L391.23 382.57" id="d2rTAF3UGw"></path><path d="M372.23 381.25L412.5 381.25L391.23 381.25L372.23 381.25Z" id="aEu2zqduN"></path><path d="M363.85 296.57L241.85 372.07L363.85 296.57Z" id="d2uLKfYtR3"></path><path d="M208.85 409.07L378.85 465.57L243.75 371.57" id="al0pHXy5h"></path><path d="M378.85 465.67L184.85 443.75L378.85 465.67Z" id="nV9HoGlnL"></path><path d="M378.35 465.75L265.5 583.5L378.35 465.75Z" id="biRJjcyEK"></path><path d="M593.75 403.32L403.07 466.32L542.57 371.82" id="a1Xh2pjLTh"></path><path d="M542.57 371.33L423.57 295.33L542.57 371.33Z" id="j2WtgtaRvz"></path><path d="M650 293.75L541.81 370.33L650 293.75Z" id="b72D9k7aq"></path><path d="M123.87 346.33L242.37 371.83L123.87 346.33Z" id="c2azr8fcBW"></path><path d="M242.37 370.83L135.87 293.75L242.37 370.83Z" id="c6m8IRmbo"></path><path d="M243.75 369.83L227.37 206.25L135.37 295.08" id="b3Wh2yljtB"></path><path d="M541.81 370.33L559.31 202.83L541.81 370.33Z" id="l55i4vuOVK"></path><path d="M650 292.33L559.31 202.83L650 292.33Z" id="gyl1moqSV"></path><path d="M598.07 451.82L401.57 465.82L598.07 451.82Z" id="a2hId0zwL"></path><path d="M527.57 573.82L402.57 465.82L527.57 573.82Z" id="d14StZ6E0m"></path><path d="M541.76 370.54L414.42 381.25L371.92 381.25L243.75 371.04" id="aC8gvRrwK"></path><path d="M237.5 293.75L364.46 296.18L237.5 293.75Z" id="b5YT5lDwoL"></path><path d="M550 293.75L425 296.18L550 293.75Z" id="g7VrRSYy"></path><path d="M650 293.75L668.75 185.68L650 293.75Z" id="b1LU1xf75X"></path><path d="M135.73 292.18L114.23 185.68L135.73 292.18Z" id="b3mV4RaAS1"></path><path d="M666.3 341.18L541.8 370.68L666.3 341.18Z" id="b2ohD9TbS6"></path><path d="M188.96 272.7L218.52 254.43L219.26 289.71L220 325L189.7 307.99L159.4 290.97L188.96 272.7Z" id="h7YmYuy9A"></path><path d="M595.94 274.74L625 293.8L593.34 309.4L561.68 325L564.28 290.35L566.87 255.69L595.94 274.74Z" id="c1GleCHcQw"></path><path d="M268.96 482.98L298.52 464.71L299.26 500L300 535.29L269.7 518.27L239.4 501.26L268.96 482.98Z" id="eQ1TMayLf"></path><path d="M530.19 517.51L500.33 535.29L500.17 500L500 464.71L530.02 482.21L560.04 499.72L530.19 517.51Z" id="e1jGF7phLn"></path><path d="M353.19 350C353.19 360.45 344.67 368.94 334.17 368.94C323.67 368.94 315.15 360.45 315.15 350C315.15 339.55 323.67 331.06 334.17 331.06C344.67 331.06 353.19 339.55 353.19 350Z" id="aNHz98Idr"></path><path d="M469.02 350C469.02 360.45 460.5 368.94 450 368.94C439.5 368.94 430.98 360.45 430.98 350C430.98 339.55 439.5 331.06 450 331.06C460.5 331.06 469.02 339.55 469.02 350Z" id="cQU1OnJE"></path><path d="M362.2 411.36C362.2 418.89 356.73 425 350 425C343.27 425 337.8 418.89 337.8 411.36C337.8 403.84 343.27 397.73 350 397.73C356.73 397.73 362.2 403.84 362.2 411.36Z" id="cALmu18Pm"></path><path d="M450 411.36C450 418.89 444.53 425 437.8 425C431.07 425 425.6 418.89 425.6 411.36C425.6 403.84 431.07 397.73 437.8 397.73C444.53 397.73 450 403.84 450 411.36Z" id="a5vluoXCm"></path><path d="M163.89 235.75L152.63 250.96L146.71 227.83L140.78 204.7L157.96 212.62L175.15 220.54L163.89 235.75Z" id="d2T169rqRg"></path><path d="M630.62 211.58L647.6 203.22L642.28 226.5L636.96 249.77L625.3 234.86L613.65 219.95L630.62 211.58Z" id="cQf65xCrH"></path><path d="M250.87 261.79L250 242.88L269.2 257.07L288.41 271.27L270.08 275.98L251.75 280.69L250.87 261.79Z" id="a5Z4WWqMa"></path><path d="M506.53 268.68L509.55 250L525.44 267.83L541.32 285.66L522.42 286.51L503.51 287.37L506.53 268.68Z" id="bCvjUOubt"></path><path d="M273.92 313.23L291.55 320.11L270.77 331.89L250 343.66L253.14 325L256.29 306.34L273.92 313.23Z" id="afK9rqiqa"></path><path d="M536.34 327.7L535.18 346.59L517.61 330.42L500.04 314.25L518.77 311.53L537.5 308.81L536.34 327.7Z" id="b1u6V8jdqh"></path></defs><g><g><g><g><use xlink:href="#aDrkqfFoP" opacity="1" fill-opacity="0" stroke="#000000" stroke-width="2" stroke-opacity="1"></use></g></g><g><g><use xlink:href="#lest2iVb6" opacity="1" fill-opacity="0" stroke="#000000" stroke-width="2" stroke-opacity="1"></use></g></g><g><g><use xlink:href="#g1dgvu0yHP" opacity="1" fill-opacity="0" stroke="#000000" stroke-width="2" stroke-opacity="1"></use></g></g><g><g><use xlink:href="#b3qQjVnqQK" opacity="1" fill-opacity="0" stroke="#000000" stroke-width="2" stroke-opacity="1"></use></g></g><g><g><use xlink:href="#m2eJSc6IFF" opacity="1" fill-opacity="0" stroke="#000000" stroke-width="2" stroke-opacity="1"></use></g></g><g><g><use xlink:href="#e6QNnBdFIM" opacity="1" fill-opacity="0" stroke="#000000" stroke-width="2" stroke-opacity="1"></use></g></g><g><g><use xlink:href="#b1pCcRLExH" opacity="1" fill-opacity="0" stroke="#000000" stroke-width="2" stroke-opacity="1"></use></g></g><g><g><use xlink:href="#c6OoGLamGn" opacity="1" fill-opacity="0" stroke="#000000" stroke-width="2" stroke-opacity="1"></use></g></g><g><g><use xlink:href="#c1nI1tTfkV" opacity="1" fill-opacity="0" stroke="#000000" stroke-width="2" stroke-opacity="1"></use></g></g><g><g><use xlink:href="#b17UmqY9ZJ" opacity="1" fill-opacity="0" stroke="#000000" stroke-width="2" stroke-opacity="1"></use></g></g><g><g><use xlink:href="#b2on0cT4y" opacity="1" fill-opacity="0" stroke="#000000" stroke-width="2" stroke-opacity="1"></use></g></g><g><g><use xlink:href="#d2rTAF3UGw" opacity="1" fill-opacity="0" stroke="#000000" stroke-width="2" stroke-opacity="1"></use></g></g><g><g><use xlink:href="#aEu2zqduN" opacity="1" fill-opacity="0" stroke="#000000" stroke-width="2" stroke-opacity="1"></use></g></g><g><g><use xlink:href="#d2uLKfYtR3" opacity="1" fill-opacity="0" stroke="#000000" stroke-width="2" stroke-opacity="1"></use></g></g><g><g><use xlink:href="#al0pHXy5h" opacity="1" fill-opacity="0" stroke="#000000" stroke-width="2" stroke-opacity="1"></use></g></g><g><g><use xlink:href="#nV9HoGlnL" opacity="1" fill-opacity="0" stroke="#000000" stroke-width="2" stroke-opacity="1"></use></g></g><g><g><use xlink:href="#biRJjcyEK" opacity="1" fill-opacity="0" stroke="#000000" stroke-width="2" stroke-opacity="1"></use></g></g><g><g><use xlink:href="#a1Xh2pjLTh" opacity="1" fill-opacity="0" stroke="#000000" stroke-width="2" stroke-opacity="1"></use></g></g><g><g><use xlink:href="#j2WtgtaRvz" opacity="1" fill-opacity="0" stroke="#000000" stroke-width="2" stroke-opacity="1"></use></g></g><g><g><use xlink:href="#b72D9k7aq" opacity="1" fill-opacity="0" stroke="#000000" stroke-width="2" stroke-opacity="1"></use></g></g><g><g><use xlink:href="#c2azr8fcBW" opacity="1" fill-opacity="0" stroke="#000000" stroke-width="2" stroke-opacity="1"></use></g></g><g><g><use xlink:href="#c6m8IRmbo" opacity="1" fill-opacity="0" stroke="#000000" stroke-width="2" stroke-opacity="1"></use></g></g><g><g><use xlink:href="#b3Wh2yljtB" opacity="1" fill-opacity="0" stroke="#000000" stroke-width="2" stroke-opacity="1"></use></g></g><g><g><use xlink:href="#l55i4vuOVK" opacity="1" fill-opacity="0" stroke="#000000" stroke-width="2" stroke-opacity="1"></use></g></g><g><g><use xlink:href="#gyl1moqSV" opacity="1" fill-opacity="0" stroke="#000000" stroke-width="2" stroke-opacity="1"></use></g></g><g><g><use xlink:href="#a2hId0zwL" opacity="1" fill-opacity="0" stroke="#000000" stroke-width="2" stroke-opacity="1"></use></g></g><g><g><use xlink:href="#d14StZ6E0m" opacity="1" fill-opacity="0" stroke="#000000" stroke-width="2" stroke-opacity="1"></use></g></g><g><g><use xlink:href="#aC8gvRrwK" opacity="1" fill-opacity="0" stroke="#000000" stroke-width="2" stroke-opacity="1"></use></g></g><g><g><use xlink:href="#b5YT5lDwoL" opacity="1" fill-opacity="0" stroke="#000000" stroke-width="2" stroke-opacity="1"></use></g></g><g><g><use xlink:href="#g7VrRSYy" opacity="1" fill-opacity="0" stroke="#000000" stroke-width="2" stroke-opacity="1"></use></g></g><g><g><use xlink:href="#b1LU1xf75X" opacity="1" fill-opacity="0" stroke="#000000" stroke-width="2" stroke-opacity="1"></use></g></g><g><g><use xlink:href="#b3mV4RaAS1" opacity="1" fill-opacity="0" stroke="#000000" stroke-width="2" stroke-opacity="1"></use></g></g><g><g><use xlink:href="#b2ohD9TbS6" opacity="1" fill-opacity="0" stroke="#000000" stroke-width="2" stroke-opacity="1"></use></g></g><g><g><use xlink:href="#h7YmYuy9A" opacity="1" fill-opacity="0" stroke="#000000" stroke-width="2" stroke-opacity="1"></use></g></g><g><g><use xlink:href="#c1GleCHcQw" opacity="1" fill-opacity="0" stroke="#000000" stroke-width="2" stroke-opacity="1"></use></g></g><g><g><use xlink:href="#eQ1TMayLf" opacity="1" fill-opacity="0" stroke="#000000" stroke-width="2" stroke-opacity="1"></use></g></g><g><g><use xlink:href="#e1jGF7phLn" opacity="1" fill-opacity="0" stroke="#000000" stroke-width="2" stroke-opacity="1"></use></g></g><g><g><use xlink:href="#aNHz98Idr" opacity="1" fill-opacity="0" stroke="#000000" stroke-width="2" stroke-opacity="1"></use></g></g><g><g><use xlink:href="#cQU1OnJE" opacity="1" fill-opacity="0" stroke="#000000" stroke-width="2" stroke-opacity="1"></use></g></g><g><g><use xlink:href="#cALmu18Pm" opacity="1" fill-opacity="0" stroke="#000000" stroke-width="2" stroke-opacity="1"></use></g></g><g><g><use xlink:href="#a5vluoXCm" opacity="1" fill-opacity="0" stroke="#000000" stroke-width="2" stroke-opacity="1"></use></g></g><g><g><use xlink:href="#d2T169rqRg" opacity="1" fill-opacity="0" stroke="#000000" stroke-width="2" stroke-opacity="1"></use></g></g><g><g><use xlink:href="#cQf65xCrH" opacity="1" fill-opacity="0" stroke="#000000" stroke-width="2" stroke-opacity="1"></use></g></g><g><g><use xlink:href="#a5Z4WWqMa" opacity="1" fill-opacity="0" stroke="#000000" stroke-width="2" stroke-opacity="1"></use></g></g><g><g><use xlink:href="#bCvjUOubt" opacity="1" fill-opacity="0" stroke="#000000" stroke-width="2" stroke-opacity="1"></use></g></g><g><g><use xlink:href="#afK9rqiqa" opacity="1" fill-opacity="0" stroke="#000000" stroke-width="2" stroke-opacity="1"></use></g></g><g><g><use xlink:href="#b1u6V8jdqh" opacity="1" fill-opacity="0" stroke="#000000" stroke-width="2" stroke-opacity="1"></use></g></g></g></g></svg>