<?xml version="1.0" encoding="UTF-8" standalone="no"?>
<!DOCTYPE svg PUBLIC "-//W3C//DTD SVG 1.1//EN" "http://www.w3.org/Graphics/SVG/1.1/DTD/svg11.dtd">
<svg version="1.1" xmlns="http://www.w3.org/2000/svg" xmlns:xlink="http://www.w3.org/1999/xlink" preserveAspectRatio="xMidYMid meet" viewBox="0 0 640 640" width="640" height="640"><defs><path d="M297.89 205.65L329.89 185.13L356.89 205.65L492.89 111.13L602.89 93.15L625.63 160.13L583.89 202.13L600.63 250.13L557.89 286.13L475.63 280.65L527.73 312.13L510.73 328.13L532.73 360.13L488.13 446.13L460.73 484.13L391.73 466.13L335.73 376.13L325.63 427.13L313.13 374.13L257.73 468.15L195.73 493.15L163.13 447.13L117.73 352.13L142.73 318.15L127.73 305.65L177.73 280.65L91.73 286.13L56.73 255.65L69.73 202.13L28.73 159.13L47.73 93.15L160.89 112.13L297.89 205.65Z" id="b17MdkFkv"></path><path d="M298.08 206.3L313.08 375.8L298.08 206.3Z" id="j1dojxcuq5"></path><path d="M313.58 375.8L336.08 375.8L358.43 205.8" id="a6iEPZQ0y"></path><path d="M298.08 206.3L357.08 206.3L298.08 206.3Z" id="ahXFO9zIo"></path><path d="M344.01 184.65L353.85 184.82L357 194.33L349.11 200.02L341.08 194.04L344.01 184.65Z" id="c1FpjLnZiO"></path><path d="M305.11 183.21L314.95 183.39L318.1 192.89L310.21 198.59L302.18 192.61L305.11 183.21Z" id="a5PTDjckNe"></path><path d="M318.61 158.76L302.41 109.15L289.91 110.71L323.81 187.8L327.41 185.71L318.61 158.76Z" id="dfJ3IAPcZ"></path><path d="M350.07 164.9L375.83 121.53L365.45 109.19L331.84 185.77L336.08 188.45L350.07 164.9Z" id="enW47PRrV"></path><path d="M357.16 206.72L325.16 292.72L297.66 206.22" id="d1Onlyonsq"></path><path d="M324.66 292.72L314.68 375.72L324.66 292.72Z" id="cmk6ue4eN"></path><path d="M314.68 375.72L336.16 375.22L324.66 292.22" id="i9wqdPelg"></path><path d="M345.93 290.9L324.66 290.9L305.66 290.9L345.93 290.9Z" id="l1GQyMo65C"></path><path d="M175.28 281.72L297.28 206.22L175.28 281.72Z" id="gomE7T7PG"></path><path d="M142.28 318.72L312.28 375.22L177.18 281.22" id="d4CoHf57if"></path><path d="M118.28 353.4L312.28 375.32L118.28 353.4Z" id="ffqGL5C9N"></path><path d="M198.93 493.15L311.78 375.4L198.93 493.15Z" id="a10JWP2EVj"></path><path d="M527.18 312.97L336.5 375.97L476 281.47" id="a2ieDmycor"></path><path d="M357 204.98L476 280.98L357 204.98Z" id="g2pQSXomkq"></path><path d="M475.24 279.98L583.43 203.4L475.24 279.98Z" id="e3oqbWCEa6"></path><path d="M175.8 281.48L57.3 255.98L175.8 281.48Z" id="g2dK2WKsHM"></path><path d="M69.3 203.4L175.8 280.48L69.3 203.4Z" id="hFbfM3wQP"></path><path d="M177.18 279.48L160.8 115.9L68.8 204.73" id="a4XlxfSz9"></path><path d="M492.74 112.48L475.24 279.98L492.74 112.48Z" id="b6E1ZqNdOd"></path><path d="M492.74 112.48L583.43 201.98L492.74 112.48Z" id="d5jtDRMOlb"></path><path d="M335 375.47L531.5 361.47L335 375.47Z" id="bma6tOqRE"></path><path d="M336 375.47L461 483.47L336 375.47Z" id="cfaYSReYE"></path><path d="M297.89 205.83L170.93 203.4L297.89 205.83Z" id="bfixfDTqp"></path><path d="M475.19 280.19L347.85 290.9L305.35 290.9L177.18 280.69" id="e3gZV7G9pw"></path><path d="M358.43 205.83L483.43 203.4L358.43 205.83Z" id="aRbdlcEP"></path><path d="M602.18 95.33L583.43 203.4L602.18 95.33Z" id="d96RDnQn8"></path><path d="M47.66 95.33L69.16 201.83L47.66 95.33Z" id="d5nWBBgCG"></path><path d="M475.23 280.33L599.73 250.83L475.23 280.33Z" id="e1vXQMZ6Ni"></path><path d="M150.51 164.08L151.25 199.36L151.99 234.65L121.69 217.64L91.39 200.62L120.95 182.35L150.51 164.08Z" id="ac7FD5GA1"></path><path d="M558.84 205.29L527.18 220.89L495.52 236.49L498.12 201.84L500.71 167.18L529.78 186.23L558.84 205.29Z" id="a3e6lltsvq"></path><path d="M231.95 374.36L232.69 409.65L233.43 444.94L203.13 427.92L172.83 410.91L202.39 392.63L231.95 374.36Z" id="d6BLxtONGh"></path><path d="M433.76 444.94L433.6 409.65L433.43 374.36L463.45 391.86L493.47 409.37L463.62 427.16L433.76 444.94Z" id="a6dORxL675"></path><path d="M267.6 278.59C257.1 278.59 248.58 270.1 248.58 259.65C248.58 249.2 257.1 240.71 267.6 240.71C278.1 240.71 286.62 249.2 286.62 259.65C286.62 270.1 278.1 278.59 267.6 278.59Z" id="b8nzMQLkf"></path><path d="M383.43 278.59C372.93 278.59 364.41 270.1 364.41 259.65C364.41 249.2 372.93 240.71 383.43 240.71C393.93 240.71 402.45 249.2 402.45 259.65C402.45 270.1 393.93 278.59 383.43 278.59Z" id="cEyUEIY2K"></path><path d="M283.43 334.65C276.7 334.65 271.23 328.54 271.23 321.01C271.23 313.49 276.7 307.38 283.43 307.38C290.16 307.38 295.63 313.49 295.63 321.01C295.63 328.54 290.16 334.65 283.43 334.65Z" id="df93tFOSo"></path><path d="M371.23 334.65C364.5 334.65 359.03 328.54 359.03 321.01C359.03 313.49 364.5 307.38 371.23 307.38C377.96 307.38 383.43 313.49 383.43 321.01C383.43 328.54 377.96 334.65 371.23 334.65Z" id="a3dJwIhk1e"></path><path d="M86.06 160.61L80.14 137.48L74.21 114.35L91.39 122.27L108.58 130.19L97.32 145.4L86.06 160.61Z" id="c111NIOLH9"></path><path d="M581.03 113.1L575.71 136.38L570.39 159.65L558.73 144.74L547.08 129.83L564.05 121.46L581.03 113.1Z" id="brLho6dG"></path><path d="M188.52 153.27L204.68 171.86L220.85 190.45L201.07 190.44L181.28 190.43L184.89 171.86L188.52 153.27Z" id="c20c28fRJX"></path><path d="M442.98 159.65L458.87 177.48L474.75 195.31L455.85 196.16L436.94 197.02L439.96 178.33L442.98 159.65Z" id="a4LagoUqy"></path><path d="M222.16 223.12L206.49 241.15L190.83 259.17L187.57 240.53L184.33 221.88L203.24 222.51L222.16 223.12Z" id="b1xfBTr9n"></path><path d="M467.95 254.79L450.94 238.03L433.94 221.27L452.75 219.19L471.56 217.11L469.76 235.95L467.95 254.79Z" id="a9phLHpQq"></path><path d="" id="fuSLtnOlY"></path></defs><g><g><g><use xlink:href="#b17MdkFkv" opacity="1" fill="#63fae1" fill-opacity="1"></use><g><use xlink:href="#b17MdkFkv" opacity="1" fill-opacity="0" stroke="#000000" stroke-width="2" stroke-opacity="1"></use></g></g><g><use xlink:href="#j1dojxcuq5" opacity="1" fill="#000000" fill-opacity="0"></use><g><use xlink:href="#j1dojxcuq5" opacity="1" fill-opacity="0" stroke="#000000" stroke-width="2" stroke-opacity="1"></use></g></g><g><use xlink:href="#a6iEPZQ0y" opacity="1" fill="#000000" fill-opacity="0"></use><g><use xlink:href="#a6iEPZQ0y" opacity="1" fill-opacity="0" stroke="#000000" stroke-width="2" stroke-opacity="1"></use></g></g><g><use xlink:href="#ahXFO9zIo" opacity="1" fill="#000000" fill-opacity="0"></use><g><use xlink:href="#ahXFO9zIo" opacity="1" fill-opacity="0" stroke="#000000" stroke-width="2" stroke-opacity="1"></use></g></g><g><use xlink:href="#c1FpjLnZiO" opacity="1" fill="#689cee" fill-opacity="1"></use><g><use xlink:href="#c1FpjLnZiO" opacity="1" fill-opacity="0" stroke="#010204" stroke-width="2" stroke-opacity="1"></use></g></g><g><use xlink:href="#a5PTDjckNe" opacity="1" fill="#689cee" fill-opacity="1"></use><g><use xlink:href="#a5PTDjckNe" opacity="1" fill-opacity="0" stroke="#010204" stroke-width="2" stroke-opacity="1"></use></g></g><g><use xlink:href="#dfJ3IAPcZ" opacity="1" fill="#0a0606" fill-opacity="1"></use><g><use xlink:href="#dfJ3IAPcZ" opacity="1" fill-opacity="0" stroke="#000000" stroke-width="2" stroke-opacity="1"></use></g></g><g><use xlink:href="#enW47PRrV" opacity="1" fill="#0a0606" fill-opacity="1"></use><g><use xlink:href="#enW47PRrV" opacity="1" fill-opacity="0" stroke="#000000" stroke-width="2" stroke-opacity="1"></use></g></g><g><use xlink:href="#d1Onlyonsq" opacity="1" fill="#be6058" fill-opacity="0"></use><g><use xlink:href="#d1Onlyonsq" opacity="1" fill-opacity="0" stroke="#000000" stroke-width="2" stroke-opacity="1"></use></g></g><g><use xlink:href="#cmk6ue4eN" opacity="1" fill="#000000" fill-opacity="0"></use><g><use xlink:href="#cmk6ue4eN" opacity="1" fill-opacity="0" stroke="#000000" stroke-width="2" stroke-opacity="1"></use></g></g><g><use xlink:href="#i9wqdPelg" opacity="1" fill="#566398" fill-opacity="0"></use><g><use xlink:href="#i9wqdPelg" opacity="1" fill-opacity="0" stroke="#000000" stroke-width="2" stroke-opacity="1"></use></g></g><g><use xlink:href="#l1GQyMo65C" opacity="1" fill="#000000" fill-opacity="0"></use><g><use xlink:href="#l1GQyMo65C" opacity="1" fill-opacity="0" stroke="#000000" stroke-width="2" stroke-opacity="1"></use></g></g><g><use xlink:href="#gomE7T7PG" opacity="1" fill="#000000" fill-opacity="0"></use><g><use xlink:href="#gomE7T7PG" opacity="1" fill-opacity="0" stroke="#000000" stroke-width="2" stroke-opacity="1"></use></g></g><g><use xlink:href="#d4CoHf57if" opacity="1" fill="#d46c6c" fill-opacity="0"></use><g><use xlink:href="#d4CoHf57if" opacity="1" fill-opacity="0" stroke="#000000" stroke-width="2" stroke-opacity="1"></use></g></g><g><use xlink:href="#ffqGL5C9N" opacity="1" fill="#000000" fill-opacity="0"></use><g><use xlink:href="#ffqGL5C9N" opacity="1" fill-opacity="0" stroke="#000000" stroke-width="2" stroke-opacity="1"></use></g></g><g><use xlink:href="#a10JWP2EVj" opacity="1" fill="#000000" fill-opacity="0"></use><g><use xlink:href="#a10JWP2EVj" opacity="1" fill-opacity="0" stroke="#000000" stroke-width="2" stroke-opacity="1"></use></g></g><g><use xlink:href="#a2ieDmycor" opacity="1" fill="#000000" fill-opacity="0"></use><g><use xlink:href="#a2ieDmycor" opacity="1" fill-opacity="0" stroke="#000000" stroke-width="2" stroke-opacity="1"></use></g></g><g><use xlink:href="#g2pQSXomkq" opacity="1" fill="#000000" fill-opacity="0"></use><g><use xlink:href="#g2pQSXomkq" opacity="1" fill-opacity="0" stroke="#000000" stroke-width="2" stroke-opacity="1"></use></g></g><g><use xlink:href="#e3oqbWCEa6" opacity="1" fill="#000000" fill-opacity="0"></use><g><use xlink:href="#e3oqbWCEa6" opacity="1" fill-opacity="0" stroke="#000000" stroke-width="2" stroke-opacity="1"></use></g></g><g><use xlink:href="#g2dK2WKsHM" opacity="1" fill="#000000" fill-opacity="0"></use><g><use xlink:href="#g2dK2WKsHM" opacity="1" fill-opacity="0" stroke="#000000" stroke-width="2" stroke-opacity="1"></use></g></g><g><use xlink:href="#hFbfM3wQP" opacity="1" fill="#000000" fill-opacity="0"></use><g><use xlink:href="#hFbfM3wQP" opacity="1" fill-opacity="0" stroke="#000000" stroke-width="2" stroke-opacity="1"></use></g></g><g><use xlink:href="#a4XlxfSz9" opacity="1" fill="#000000" fill-opacity="0"></use><g><use xlink:href="#a4XlxfSz9" opacity="1" fill-opacity="0" stroke="#000000" stroke-width="2" stroke-opacity="1"></use></g></g><g><use xlink:href="#b6E1ZqNdOd" opacity="1" fill="#000000" fill-opacity="0"></use><g><use xlink:href="#b6E1ZqNdOd" opacity="1" fill-opacity="0" stroke="#000000" stroke-width="2" stroke-opacity="1"></use></g></g><g><use xlink:href="#d5jtDRMOlb" opacity="1" fill="#000000" fill-opacity="0"></use><g><use xlink:href="#d5jtDRMOlb" opacity="1" fill-opacity="0" stroke="#000000" stroke-width="2" stroke-opacity="1"></use></g></g><g><use xlink:href="#bma6tOqRE" opacity="1" fill="#000000" fill-opacity="0"></use><g><use xlink:href="#bma6tOqRE" opacity="1" fill-opacity="0" stroke="#000000" stroke-width="2" stroke-opacity="1"></use></g></g><g><use xlink:href="#cfaYSReYE" opacity="1" fill="#000000" fill-opacity="0"></use><g><use xlink:href="#cfaYSReYE" opacity="1" fill-opacity="0" stroke="#000000" stroke-width="2" stroke-opacity="1"></use></g></g><g><use xlink:href="#bfixfDTqp" opacity="1" fill="#000000" fill-opacity="0"></use><g><use xlink:href="#bfixfDTqp" opacity="1" fill-opacity="0" stroke="#000000" stroke-width="2" stroke-opacity="1"></use></g></g><g><use xlink:href="#e3gZV7G9pw" opacity="1" fill="#000000" fill-opacity="0"></use><g><use xlink:href="#e3gZV7G9pw" opacity="1" fill-opacity="0" stroke="#000000" stroke-width="2" stroke-opacity="1"></use></g></g><g><use xlink:href="#aRbdlcEP" opacity="1" fill="#000000" fill-opacity="0"></use><g><use xlink:href="#aRbdlcEP" opacity="1" fill-opacity="0" stroke="#000000" stroke-width="2" stroke-opacity="1"></use></g></g><g><use xlink:href="#d96RDnQn8" opacity="1" fill="#000000" fill-opacity="0"></use><g><use xlink:href="#d96RDnQn8" opacity="1" fill-opacity="0" stroke="#000000" stroke-width="2" stroke-opacity="1"></use></g></g><g><use xlink:href="#d5nWBBgCG" opacity="1" fill="#000000" fill-opacity="0"></use><g><use xlink:href="#d5nWBBgCG" opacity="1" fill-opacity="0" stroke="#000000" stroke-width="2" stroke-opacity="1"></use></g></g><g><use xlink:href="#e1vXQMZ6Ni" opacity="1" fill="#000000" fill-opacity="0"></use><g><use xlink:href="#e1vXQMZ6Ni" opacity="1" fill-opacity="0" stroke="#000000" stroke-width="2" stroke-opacity="1"></use></g></g><g><use xlink:href="#ac7FD5GA1" opacity="1" fill="#0d63c8" fill-opacity="1"></use><g><use xlink:href="#ac7FD5GA1" opacity="1" fill-opacity="0" stroke="#000000" stroke-width="2" stroke-opacity="1"></use></g></g><g><use xlink:href="#a3e6lltsvq" opacity="1" fill="#0d63c8" fill-opacity="1"></use><g><use xlink:href="#a3e6lltsvq" opacity="1" fill-opacity="0" stroke="#000000" stroke-width="2" stroke-opacity="1"></use></g></g><g><use xlink:href="#d6BLxtONGh" opacity="1" fill="#ecb6f8" fill-opacity="1"></use><g><use xlink:href="#d6BLxtONGh" opacity="1" fill-opacity="0" stroke="#000000" stroke-width="2" stroke-opacity="1"></use></g></g><g><use xlink:href="#a6dORxL675" opacity="1" fill="#ecb6f8" fill-opacity="1"></use><g><use xlink:href="#a6dORxL675" opacity="1" fill-opacity="0" stroke="#000000" stroke-width="2" stroke-opacity="1"></use></g></g><g><use xlink:href="#b8nzMQLkf" opacity="1" fill="#e6165d" fill-opacity="1"></use><g><use xlink:href="#b8nzMQLkf" opacity="1" fill-opacity="0" stroke="#000000" stroke-width="2" stroke-opacity="1"></use></g></g><g><use xlink:href="#cEyUEIY2K" opacity="1" fill="#e6165d" fill-opacity="1"></use><g><use xlink:href="#cEyUEIY2K" opacity="1" fill-opacity="0" stroke="#000000" stroke-width="2" stroke-opacity="1"></use></g></g><g><use xlink:href="#df93tFOSo" opacity="1" fill="#f2f206" fill-opacity="1"></use><g><use xlink:href="#df93tFOSo" opacity="1" fill-opacity="0" stroke="#000000" stroke-width="2" stroke-opacity="1"></use></g></g><g><use xlink:href="#a3dJwIhk1e" opacity="1" fill="#f2f206" fill-opacity="1"></use><g><use xlink:href="#a3dJwIhk1e" opacity="1" fill-opacity="0" stroke="#000000" stroke-width="2" stroke-opacity="1"></use></g></g><g><use xlink:href="#c111NIOLH9" opacity="1" fill="#efe017" fill-opacity="1"></use><g><use xlink:href="#c111NIOLH9" opacity="1" fill-opacity="0" stroke="#000000" stroke-width="2" stroke-opacity="1"></use></g></g><g><use xlink:href="#brLho6dG" opacity="1" fill="#efe017" fill-opacity="1"></use><g><use xlink:href="#brLho6dG" opacity="1" fill-opacity="0" stroke="#000000" stroke-width="2" stroke-opacity="1"></use></g></g><g><use xlink:href="#c20c28fRJX" opacity="1" fill="#eabff4" fill-opacity="1"></use><g><use xlink:href="#c20c28fRJX" opacity="1" fill-opacity="0" stroke="#000000" stroke-width="2" stroke-opacity="1"></use></g></g><g><use xlink:href="#a4LagoUqy" opacity="1" fill="#eabff4" fill-opacity="1"></use><g><use xlink:href="#a4LagoUqy" opacity="1" fill-opacity="0" stroke="#000000" stroke-width="2" stroke-opacity="1"></use></g></g><g><use xlink:href="#b1xfBTr9n" opacity="1" fill="#a42da1" fill-opacity="1"></use><g><use xlink:href="#b1xfBTr9n" opacity="1" fill-opacity="0" stroke="#000000" stroke-width="2" stroke-opacity="1"></use></g></g><g><use xlink:href="#a9phLHpQq" opacity="1" fill="#a42da1" fill-opacity="1"></use><g><use xlink:href="#a9phLHpQq" opacity="1" fill-opacity="0" stroke="#000000" stroke-width="2" stroke-opacity="1"></use></g></g><g><g><use xlink:href="#fuSLtnOlY" opacity="1" fill-opacity="0" stroke="#000000" stroke-width="1" stroke-opacity="1"></use></g></g></g></g></svg>